# xmcd
# Track frame offsets:
# 150
# 9535
# 16700
# 29017
# 37485
# 46714
# 52285
# 64270
# 70125
# 77505
#
# Disc length: 1136 seconds
# Revision: 0
# Processed by: cddbd v1.5.1PL2 Copyright (c) Steve Scherf et al.
# Submitted via: VisiTrax 2.9.10.228 - For more info visit www.synapsa.com
#
DISCID=84046e0a
DTITLE=Buck Owens - Blue Love
DYEAR=2005
DGENRE=
TTITLE0=House Down The Block
TTITLE1=You´re For Me
TTITLE2=Down The Corner of Love
TTITLE3=Blue Love
TTITLE4=It Don`t Show on Me
TTITLE5=Right After The Dance
TTITLE6=Please Don`t Take Her Away From Me
TTITLE7=Tree Dimensional Love
TTITLE8=That Ain`t Right Baby
TTITLE9=Honeysuckle
EXTD=
EXTT0=
EXTT1=
EXTT2=
EXTT3=
EXTT4=
EXTT5=
EXTT6=
EXTT7=
EXTT8=
EXTT9=
PLAYORDER=
